# xmcd
#
# Track frame offsets:
#	182
#	16905
#	28200
#	44190
#	58527
#	80030
#	96832
#	109712
#	126095
#	141805
#	153850
#	168820
#	183735
#	197112
#
# Disc length: 2835 seconds
# Revision: 0
# Processed by: cddbd v1.5.2PL0 Copyright (c) Steve Scherf et al.
# Submitted via: dBpowerAMP V12.0
#
DISCID=c00b110e
DTITLE=Susan Marshall - My Own Time
DYEAR=1995
DGENRE=Country
TTITLE0=Are You Sure Hank Done It This Way
TTITLE1=Why Can't You Tell Me Why
TTITLE2=I Used To Hate Honky Tonks
TTITLE3=Someday, Someday
TTITLE4=Rock'N'Roll Til The Cows Come Home
TTITLE5=Behind The Wire
TTITLE6=Now Stop
TTITLE7=Special Consideration
TTITLE8=He's My Friend
TTITLE9=Perfect Love
TTITLE10=My Own Time
TTITLE11=Lipstick On Your Collar
TTITLE12=Talkin' Too Fast
TTITLE13=Don't Play Innocent With Me
EXTD=
EXTT0=
EXTT1=
EXTT2=
EXTT3=
EXTT4=
EXTT5=
EXTT6=
EXTT7=
EXTT8=
EXTT9=
EXTT10=
EXTT11=
EXTT12=
EXTT13=
PLAYORDER=
